<svg width="100" height="100" viewBox="0 0 100 100" fill="none" xmlns="http://www.w3.org/2000/svg">
<circle cx="50" cy="50" r="50" fill="#121212"/>
<path d="M15.7994 58.248C15.5434 58.28 15.3434 58.224 15.1994 58.08C15.0714 57.952 15.0074 57.808 15.0074 57.648C15.0074 57.52 15.0474 57.4 15.1274 57.288C15.2234 57.192 15.3594 57.128 15.5354 57.096C15.9514 57.032 16.4714 56.92 17.0954 56.76C17.7354 56.6 18.3914 56.392 19.0634 56.136C19.7514 55.864 20.3754 55.528 20.9354 55.128C21.6554 54.616 22.2394 54.12 22.6874 53.64C23.1354 53.16 23.4954 52.584 23.7674 51.912C23.8474 51.704 23.8874 51.544 23.8874 51.432C23.8874 51.24 23.7994 51.072 23.6234 50.928C23.4634 50.784 23.2234 50.552 22.9034 50.232C22.5834 49.912 22.2234 49.712 21.8234 49.632C21.4394 49.536 20.9114 49.408 20.2394 49.248C19.7914 49.12 19.3754 49.016 18.9914 48.936C18.6234 48.856 18.2794 48.816 17.9594 48.816C17.7674 48.816 17.6154 48.752 17.5034 48.624C17.3914 48.496 17.3354 48.352 17.3354 48.192C17.3354 47.92 17.4634 47.752 17.7194 47.688C17.9914 47.608 18.3114 47.504 18.6794 47.376C19.0634 47.248 19.4474 47.096 19.8314 46.92C20.2154 46.744 20.5514 46.536 20.8394 46.296C21.1274 46.056 21.3114 45.784 21.3914 45.48C21.4234 45.336 21.4474 45.208 21.4634 45.096C21.4954 44.968 21.5114 44.848 21.5114 44.736C21.5114 44.304 21.3594 43.976 21.0554 43.752C20.7674 43.528 20.3514 43.336 19.8074 43.176C19.5994 43.112 19.3834 43.08 19.1594 43.08C18.9994 43.08 18.8314 43.104 18.6554 43.152C18.4954 43.184 18.2794 43.24 18.0074 43.32C17.8794 43.32 17.7514 43.36 17.6234 43.44C17.4954 43.52 17.3194 43.616 17.0954 43.728C17.0474 43.744 16.9994 43.76 16.9514 43.776C16.9034 43.776 16.8554 43.776 16.8074 43.776C16.5994 43.776 16.4234 43.712 16.2794 43.584C16.1514 43.456 16.0874 43.312 16.0874 43.152C16.0874 42.928 16.2234 42.768 16.4954 42.672C16.6554 42.624 16.8074 42.552 16.9514 42.456C17.1114 42.36 17.3194 42.272 17.5754 42.192C17.8314 42.112 18.0874 42.048 18.3434 42C18.5994 41.952 18.8634 41.928 19.1354 41.928C19.3114 41.928 19.4794 41.944 19.6394 41.976C19.8154 41.992 19.9994 42.016 20.1914 42.048C20.8794 42.208 21.4954 42.52 22.0394 42.984C22.5994 43.448 22.8794 44.048 22.8794 44.784C22.8794 44.944 22.8634 45.112 22.8314 45.288C22.8154 45.448 22.7674 45.616 22.6874 45.792C22.4794 46.336 22.1514 46.792 21.7034 47.16C21.2714 47.512 20.8074 47.808 20.3114 48.048C20.3434 48.048 20.3914 48.056 20.4554 48.072C20.5194 48.088 20.5834 48.104 20.6474 48.12C21.1914 48.264 21.7434 48.4 22.3034 48.528C22.8794 48.64 23.4154 48.952 23.9114 49.464C24.0554 49.608 24.2314 49.776 24.4394 49.968C24.6474 50.144 24.8314 50.36 24.9914 50.616C25.1514 50.872 25.2314 51.168 25.2314 51.504C25.2314 51.616 25.2154 51.744 25.1834 51.888C25.1674 52.032 25.1194 52.184 25.0394 52.344C24.7034 53.096 24.2714 53.768 23.7434 54.36C23.2314 54.952 22.5834 55.528 21.7994 56.088C21.1274 56.552 20.4074 56.928 19.6394 57.216C18.8874 57.52 18.1674 57.752 17.4794 57.912C16.8074 58.072 16.2474 58.184 15.7994 58.248ZM12.9194 58.632C12.6314 58.632 12.3434 58.528 12.0554 58.32C11.7674 58.128 11.6474 57.808 11.6954 57.36C11.7434 56.864 11.8954 56.208 12.1514 55.392C12.4234 54.576 12.7514 53.696 13.1354 52.752C13.5194 51.792 13.9274 50.832 14.3594 49.872C14.8074 48.896 15.2394 48 15.6554 47.184C16.0874 46.368 16.4554 45.696 16.7594 45.168C16.9034 44.912 17.1274 44.784 17.4314 44.784C17.6074 44.784 17.7674 44.848 17.9114 44.976C18.0554 45.104 18.1114 45.28 18.0794 45.504V45.48C18.0634 45.64 17.9994 45.888 17.8874 46.224C17.7754 46.56 17.6554 46.824 17.5274 47.016C17.3514 47.272 17.1354 47.536 16.8794 47.808C16.6234 48.064 16.3994 48.376 16.2074 48.744C15.6154 49.848 15.0794 50.936 14.5994 52.008C14.1354 53.064 13.7594 54.032 13.4714 54.912C13.1834 55.776 13.0154 56.488 12.9674 57.048C12.9514 57.16 12.9994 57.28 13.1114 57.408C13.2394 57.536 13.3594 57.664 13.4714 57.792C13.5994 57.92 13.6634 58.048 13.6634 58.176C13.6634 58.288 13.5754 58.4 13.3994 58.512C13.2714 58.592 13.1114 58.632 12.9194 58.632ZM28.6072 56.472C28.1592 56.472 27.7192 56.376 27.2872 56.184C26.8712 55.992 26.5272 55.728 26.2552 55.392C25.9832 55.056 25.8472 54.672 25.8472 54.24C25.8472 53.6 26.0152 53.04 26.3512 52.56C26.6872 52.08 27.1112 51.672 27.6232 51.336C28.1512 51 28.6872 50.744 29.2312 50.568C29.7592 50.392 30.3352 50.304 30.9592 50.304C31.6152 50.304 32.2472 50.424 32.8552 50.664C33.4792 50.888 33.9192 51.28 34.1752 51.84C34.3032 51.424 34.3992 51.016 34.4632 50.616C34.5272 50.2 34.5592 49.84 34.5592 49.536C34.5592 49.024 34.4552 48.632 34.2472 48.36C34.0552 48.088 33.7032 47.952 33.1912 47.952C32.9832 47.952 32.7432 48.032 32.4712 48.192C32.1992 48.336 31.9352 48.528 31.6792 48.768C31.5832 48.864 31.5112 48.928 31.4632 48.96C31.4312 48.992 31.3432 49.008 31.1992 49.008C31.0392 49.008 30.9112 48.952 30.8152 48.84C30.7352 48.728 30.6952 48.6 30.6952 48.456C30.6952 48.264 30.7672 48.096 30.9112 47.952C31.0552 47.808 31.2152 47.648 31.3912 47.472C31.5672 47.296 31.7912 47.144 32.0632 47.016C32.3512 46.872 32.7112 46.8 33.1432 46.8C34.0392 46.8 34.6952 47.008 35.1112 47.424C35.5272 47.84 35.7352 48.52 35.7352 49.464C35.7352 49.928 35.6712 50.408 35.5432 50.904C35.4312 51.4 35.2952 51.928 35.1352 52.488C35.0392 52.84 34.9032 53.24 34.7272 53.688C34.5672 54.12 34.3592 54.552 34.1032 54.984C33.8472 55.416 33.5352 55.784 33.1672 56.088C33.0552 56.184 32.9352 56.232 32.8072 56.232C32.6472 56.232 32.5112 56.176 32.3992 56.064C32.2872 55.952 32.2312 55.824 32.2312 55.68C32.2312 55.536 32.3032 55.392 32.4472 55.248C32.6232 55.104 32.8072 54.872 32.9992 54.552C33.2072 54.232 33.3992 53.832 33.5752 53.352C33.5272 52.696 33.2152 52.216 32.6392 51.912C32.0792 51.608 31.4552 51.456 30.7672 51.456C30.3672 51.456 29.9832 51.504 29.6152 51.6C29.2152 51.712 28.8152 51.904 28.4152 52.176C28.0152 52.432 27.6792 52.736 27.4072 53.088C27.1512 53.44 27.0232 53.808 27.0232 54.192C27.0232 54.496 27.1752 54.768 27.4792 55.008C27.7992 55.248 28.1752 55.368 28.6072 55.368C28.9752 55.368 29.2632 55.36 29.4712 55.344C29.6952 55.328 29.9032 55.28 30.0952 55.2C30.3032 55.104 30.5672 54.936 30.8872 54.696C31.0312 54.6 31.1512 54.552 31.2472 54.552C31.3752 54.552 31.4792 54.592 31.5592 54.672C31.6392 54.752 31.6792 54.856 31.6792 54.984C31.6792 55.16 31.5912 55.312 31.4152 55.44C30.8712 55.888 30.3912 56.176 29.9752 56.304C29.5752 56.416 29.1192 56.472 28.6072 56.472ZM41.5708 47.808C41.4908 47.904 41.3868 47.912 41.2588 47.832C41.1468 47.752 41.0508 47.632 40.9708 47.472C40.8908 47.296 40.8668 47.128 40.8988 46.968H40.9228C40.9868 46.728 41.0668 46.528 41.1628 46.368C41.2588 46.208 41.3868 46.048 41.5468 45.888C41.6428 45.792 41.7708 45.744 41.9308 45.744C42.0748 45.744 42.2028 45.792 42.3148 45.888C42.4428 45.968 42.5068 46.072 42.5068 46.2C42.5068 46.264 42.4828 46.336 42.4348 46.416C42.3868 46.48 42.2908 46.648 42.1468 46.92C42.0188 47.192 41.8268 47.488 41.5708 47.808ZM38.5468 56.664C38.2908 56.664 38.0348 56.568 37.7788 56.376C37.5388 56.168 37.4428 55.84 37.4908 55.392C37.5548 54.768 37.6428 54.24 37.7548 53.808C37.8668 53.376 37.9948 52.984 38.1388 52.632C38.2828 52.264 38.4348 51.872 38.5948 51.456C38.7708 51.04 38.9468 50.536 39.1228 49.944C39.2188 49.672 39.4188 49.536 39.7228 49.536C39.9308 49.536 40.1148 49.6 40.2748 49.728C40.4348 49.856 40.4828 50.032 40.4188 50.256C40.2108 50.928 40.0028 51.472 39.7948 51.888C39.5868 52.304 39.3948 52.672 39.2188 52.992C39.0428 53.296 38.8908 53.632 38.7628 54C38.6508 54.352 38.5788 54.808 38.5468 55.368C38.5468 55.416 38.6508 55.52 38.8588 55.68C39.0668 55.824 39.1708 55.992 39.1708 56.184C39.1708 56.328 39.0908 56.456 38.9308 56.568C38.8508 56.632 38.7228 56.664 38.5468 56.664ZM45.152 58.32C45.088 58.32 45.032 58.312 44.984 58.296C44.936 58.296 44.88 58.288 44.816 58.272C44.368 58.16 43.928 57.984 43.496 57.744C43.08 57.504 42.736 57.152 42.464 56.688C42.192 56.208 42.056 55.584 42.056 54.816C42.056 54.512 42.08 54.184 42.128 53.832C42.208 53.272 42.352 52.616 42.56 51.864C42.784 51.096 43.048 50.296 43.352 49.464H43.328C43.232 49.464 43.144 49.48 43.064 49.512C42.984 49.544 42.904 49.56 42.824 49.56C42.568 49.56 42.44 49.408 42.44 49.104C42.44 48.928 42.512 48.76 42.656 48.6C42.8 48.44 42.936 48.36 43.064 48.36L43.784 48.336C44.184 47.296 44.584 46.312 44.984 45.384C45.4 44.44 45.752 43.696 46.04 43.152C46.12 43.008 46.232 42.904 46.376 42.84C46.536 42.76 46.696 42.72 46.856 42.72C47.016 42.72 47.152 42.76 47.264 42.84C47.392 42.904 47.456 43 47.456 43.128C47.456 43.16 47.44 43.224 47.408 43.32L45.92 46.56C45.776 46.864 45.64 47.152 45.512 47.424C45.4 47.696 45.28 47.968 45.152 48.24C45.472 48.24 45.8 48.248 46.136 48.264C46.488 48.28 46.88 48.312 47.312 48.36C47.392 48.376 47.472 48.432 47.552 48.528C47.632 48.624 47.672 48.728 47.672 48.84C47.672 48.92 47.64 49 47.576 49.08C47.528 49.144 47.416 49.184 47.24 49.2C46.856 49.248 46.432 49.28 45.968 49.296C45.504 49.296 45.088 49.304 44.72 49.32C44.352 50.296 44.056 51.184 43.832 51.984C43.624 52.784 43.456 53.536 43.328 54.24C43.312 54.352 43.296 54.464 43.28 54.576C43.28 54.688 43.28 54.792 43.28 54.888C43.28 55.608 43.472 56.144 43.856 56.496C44.24 56.848 44.672 57.096 45.152 57.24C45.44 57.336 45.64 57.432 45.752 57.528C45.88 57.64 45.944 57.744 45.944 57.84C45.944 57.968 45.864 58.08 45.704 58.176C45.56 58.272 45.376 58.32 45.152 58.32ZM51.1029 58.368C50.9749 58.368 50.8229 58.344 50.6469 58.296C49.6709 57.976 48.9589 57.448 48.5109 56.712C48.0629 55.96 47.8389 55.168 47.8389 54.336C47.8389 54.208 47.8389 54.088 47.8389 53.976C47.8549 53.848 47.8709 53.728 47.8869 53.616C48.0309 52.704 48.3349 51.896 48.7989 51.192C49.2789 50.488 49.8149 49.912 50.4069 49.464C51.0149 49 51.5669 48.704 52.0629 48.576C52.3829 48.496 52.7029 48.432 53.0229 48.384C53.3429 48.32 53.6549 48.288 53.9589 48.288C54.7269 48.288 55.3829 48.456 55.9269 48.792C56.4709 49.128 56.7429 49.68 56.7429 50.448C56.7429 50.88 56.6069 51.272 56.3349 51.624C56.0789 51.976 55.7509 52.28 55.3509 52.536C54.9669 52.776 54.5909 52.968 54.2229 53.112C53.6629 53.336 53.0229 53.504 52.3029 53.616C51.5989 53.728 50.9349 53.784 50.3109 53.784C49.9109 53.784 49.5429 53.76 49.2069 53.712V53.736C49.2069 53.8 49.1989 53.864 49.1829 53.928C49.1669 53.976 49.1589 54.032 49.1589 54.096C49.1429 54.16 49.1349 54.224 49.1349 54.288C49.1349 54.336 49.1349 54.384 49.1349 54.432C49.1349 54.928 49.2309 55.368 49.4229 55.752C49.6309 56.12 49.8709 56.44 50.1429 56.712C50.4149 56.968 50.6389 57.176 50.8149 57.336C51.1029 57.48 51.3029 57.616 51.4149 57.744C51.5429 57.888 51.6069 58 51.6069 58.08C51.6069 58.272 51.4389 58.368 51.1029 58.368ZM50.9589 52.704C51.4389 52.704 51.9429 52.672 52.4709 52.608C52.9989 52.528 53.4869 52.384 53.9349 52.176C54.2869 52 54.6149 51.768 54.9189 51.48C55.2229 51.176 55.3749 50.816 55.3749 50.4C55.3749 50.08 55.2469 49.84 54.9909 49.68C54.7349 49.52 54.3749 49.44 53.9109 49.44C53.3829 49.44 52.8069 49.536 52.1829 49.728C51.9589 49.792 51.6789 49.944 51.3429 50.184C51.0229 50.424 50.6949 50.752 50.3589 51.168C50.0229 51.568 49.7429 52.048 49.5189 52.608C49.7109 52.624 49.9269 52.648 50.1669 52.68C50.4229 52.696 50.6869 52.704 50.9589 52.704ZM71.4358 57.336C71.0358 57.336 70.7558 57.184 70.5958 56.88C70.4518 56.576 70.3798 56.208 70.3798 55.776C70.3798 55.216 70.4678 54.632 70.6438 54.024C70.8198 53.4 70.9958 52.888 71.1718 52.488C71.5718 51.592 71.7718 51 71.7718 50.712C71.7718 50.488 71.6678 50.376 71.4598 50.376C71.4118 50.376 71.3558 50.376 71.2918 50.376C71.2438 50.376 71.1878 50.392 71.1238 50.424C70.6758 50.552 70.1558 50.808 69.5638 51.192C68.9878 51.576 68.4118 52.008 67.8358 52.488C67.2598 52.968 66.7638 53.44 66.3478 53.904C66.1238 54.16 65.9158 54.456 65.7238 54.792C65.5318 55.128 65.3798 55.36 65.2678 55.488C65.0918 55.696 64.8838 55.8 64.6438 55.8C64.4838 55.8 64.3398 55.744 64.2118 55.632C64.0998 55.504 64.0678 55.312 64.1158 55.056C64.2438 54.304 64.3318 53.832 64.3798 53.64C64.4278 53.432 64.4598 53.328 64.4758 53.328V53.088C64.4758 52.704 64.4518 52.344 64.4038 52.008C64.3718 51.656 64.2918 51.384 64.1638 51.192C64.0518 51 63.8758 50.944 63.6358 51.024C63.2038 51.152 62.7078 51.408 62.1478 51.792C61.5878 52.176 61.0358 52.608 60.4918 53.088C59.9478 53.568 59.4838 54.016 59.0998 54.432C58.6998 54.88 58.4438 55.248 58.3318 55.536C58.2358 55.824 58.1878 55.968 58.1878 55.968C58.0438 56.128 57.9078 56.208 57.7798 56.208C57.4758 56.208 57.3238 55.936 57.3238 55.392C57.3238 54.912 57.4118 54.368 57.5878 53.76C57.7638 53.152 57.9798 52.552 58.2358 51.96C58.5078 51.352 58.7558 50.824 58.9798 50.376C59.1238 50.12 59.3238 49.992 59.5798 49.992C59.7558 49.992 59.8997 50.056 60.0117 50.184C60.1398 50.312 60.1878 50.488 60.1558 50.712C60.1558 50.808 60.0598 51 59.8678 51.288C59.6758 51.56 59.4758 51.896 59.2678 52.296C59.0758 52.68 58.9558 53.096 58.9078 53.544C59.0838 53.272 59.2358 53.08 59.3638 52.968C59.5078 52.84 59.6838 52.672 59.8918 52.464C60.3398 52.016 60.7238 51.664 61.0438 51.408C61.3798 51.152 61.7318 50.928 62.0998 50.736C62.4678 50.544 62.9238 50.328 63.4678 50.088C63.6118 50.008 63.7638 49.944 63.9238 49.896C64.0838 49.848 64.2438 49.824 64.4038 49.824C64.6598 49.824 64.8918 49.92 65.0998 50.112C65.3078 50.288 65.4758 50.608 65.6038 51.072C65.7478 51.536 65.8118 52.208 65.7958 53.088C66.0198 52.912 66.2118 52.736 66.3718 52.56C66.5478 52.368 66.7398 52.168 66.9478 51.96C67.4118 51.496 67.8198 51.12 68.1718 50.832C68.5398 50.528 68.9238 50.264 69.3238 50.04C69.7398 49.8 70.2358 49.552 70.8118 49.296C70.9878 49.216 71.1958 49.144 71.4358 49.08C71.6758 49 71.9078 48.96 72.1318 48.96C72.4038 48.96 72.6438 49.04 72.8518 49.2C73.0598 49.36 73.1638 49.656 73.1638 50.088C73.1638 50.376 73.1078 50.736 72.9958 51.168C72.8998 51.584 72.7158 52.096 72.4438 52.704C72.2038 53.264 71.9958 53.864 71.8198 54.504C71.6598 55.144 71.5478 55.672 71.4838 56.088C71.6598 56.344 71.7478 56.624 71.7478 56.928C71.7478 57.04 71.7238 57.136 71.6758 57.216C71.6278 57.296 71.5478 57.336 71.4358 57.336ZM78.977 47.808C78.897 47.904 78.793 47.912 78.665 47.832C78.553 47.752 78.457 47.632 78.377 47.472C78.297 47.296 78.273 47.128 78.305 46.968H78.329C78.393 46.728 78.473 46.528 78.569 46.368C78.665 46.208 78.793 46.048 78.953 45.888C79.049 45.792 79.177 45.744 79.337 45.744C79.481 45.744 79.609 45.792 79.721 45.888C79.849 45.968 79.913 46.072 79.913 46.2C79.913 46.264 79.889 46.336 79.841 46.416C79.793 46.48 79.697 46.648 79.553 46.92C79.425 47.192 79.233 47.488 78.977 47.808ZM75.953 56.664C75.697 56.664 75.441 56.568 75.185 56.376C74.945 56.168 74.849 55.84 74.897 55.392C74.961 54.768 75.049 54.24 75.161 53.808C75.273 53.376 75.401 52.984 75.545 52.632C75.689 52.264 75.841 51.872 76.001 51.456C76.177 51.04 76.353 50.536 76.529 49.944C76.625 49.672 76.825 49.536 77.129 49.536C77.337 49.536 77.521 49.6 77.681 49.728C77.841 49.856 77.889 50.032 77.825 50.256C77.617 50.928 77.409 51.472 77.201 51.888C76.993 52.304 76.801 52.672 76.625 52.992C76.449 53.296 76.297 53.632 76.169 54C76.057 54.352 75.985 54.808 75.953 55.368C75.953 55.416 76.057 55.52 76.265 55.68C76.473 55.824 76.577 55.992 76.577 56.184C76.577 56.328 76.497 56.456 76.337 56.568C76.257 56.632 76.129 56.664 75.953 56.664ZM80.1583 56.616C80.0143 56.616 79.8783 56.56 79.7503 56.448C79.6383 56.32 79.5823 56.112 79.5823 55.824C79.5823 55.76 79.5823 55.696 79.5823 55.632C79.5983 55.552 79.6143 55.472 79.6303 55.392C79.7743 54.688 79.9583 53.944 80.1823 53.16C80.4223 52.376 80.6623 51.64 80.9023 50.952C81.1423 50.248 81.3183 49.696 81.4303 49.296C81.5103 49.04 81.6223 48.856 81.7663 48.744C81.9263 48.632 82.0863 48.576 82.2463 48.576C82.4223 48.576 82.5663 48.632 82.6783 48.744C82.8063 48.84 82.8703 48.976 82.8703 49.152C82.8703 49.296 82.8223 49.456 82.7263 49.632C82.6303 49.808 82.5103 50.088 82.3663 50.472C82.2383 50.856 82.1103 51.24 81.9823 51.624C81.8543 52.008 81.7423 52.296 81.6463 52.488C82.2063 51.944 82.7103 51.496 83.1583 51.144C83.6063 50.792 84.1983 50.448 84.9343 50.112C85.2543 49.952 85.6703 49.872 86.1823 49.872C86.5503 49.872 86.9183 49.944 87.2863 50.088C87.6543 50.232 87.9583 50.488 88.1983 50.856C88.4383 51.224 88.5583 51.744 88.5583 52.416C88.5583 52.672 88.4143 52.8 88.1263 52.8C88.0143 52.8 87.8943 52.752 87.7663 52.656C87.6543 52.56 87.5583 52.4 87.4783 52.176C87.3663 51.808 87.1903 51.52 86.9503 51.312C86.7263 51.088 86.4303 50.976 86.0623 50.976C85.8383 50.976 85.5823 51.024 85.2943 51.12C84.9423 51.232 84.5023 51.448 83.9743 51.768C83.4463 52.072 82.9023 52.456 82.3423 52.92C81.7983 53.384 81.2943 53.912 80.8303 54.504C80.8303 54.616 80.8063 54.744 80.7583 54.888C80.7263 55.032 80.7103 55.192 80.7103 55.368C80.7103 55.4 80.7263 55.48 80.7583 55.608C80.7903 55.736 80.8063 55.864 80.8063 55.992C80.8063 56.168 80.7343 56.32 80.5903 56.448C80.4623 56.56 80.3183 56.616 80.1583 56.616Z" fill="white"/>
</svg>
