<svg width="347" height="260" viewBox="0 0 347 260" fill="none" xmlns="http://www.w3.org/2000/svg">
<rect width="347" height="260" fill="#121212"/>
<path d="M82.7985 104.328C82.1158 104.413 81.5825 104.264 81.1985 103.88C80.8572 103.539 80.6865 103.155 80.6865 102.728C80.6865 102.387 80.7932 102.067 81.0065 101.768C81.2625 101.512 81.6252 101.341 82.0945 101.256C83.2038 101.085 84.5905 100.787 86.2545 100.36C87.9612 99.9333 89.7105 99.3787 91.5025 98.696C93.3372 97.9707 95.0012 97.0747 96.4945 96.008C98.4145 94.6427 99.9718 93.32 101.167 92.04C102.361 90.76 103.321 89.224 104.047 87.432C104.26 86.8773 104.367 86.4507 104.367 86.152C104.367 85.64 104.132 85.192 103.663 84.808C103.236 84.424 102.596 83.8053 101.743 82.952C100.889 82.0987 99.9292 81.5653 98.8625 81.352C97.8385 81.096 96.4305 80.7547 94.6385 80.328C93.4438 79.9867 92.3345 79.7093 91.3105 79.496C90.3292 79.2827 89.4118 79.176 88.5585 79.176C88.0465 79.176 87.6412 79.0053 87.3425 78.664C87.0438 78.3227 86.8945 77.9387 86.8945 77.512C86.8945 76.7867 87.2358 76.3387 87.9185 76.168C88.6438 75.9547 89.4972 75.6773 90.4785 75.336C91.5025 74.9947 92.5265 74.5893 93.5505 74.12C94.5745 73.6507 95.4705 73.096 96.2385 72.456C97.0065 71.816 97.4972 71.0907 97.7105 70.28C97.7958 69.896 97.8598 69.5547 97.9025 69.256C97.9878 68.9147 98.0305 68.5947 98.0305 68.296C98.0305 67.144 97.6252 66.2693 96.8145 65.672C96.0465 65.0747 94.9372 64.5627 93.4865 64.136C92.9318 63.9653 92.3558 63.88 91.7585 63.88C91.3318 63.88 90.8838 63.944 90.4145 64.072C89.9878 64.1573 89.4118 64.3067 88.6865 64.52C88.3452 64.52 88.0038 64.6267 87.6625 64.84C87.3212 65.0533 86.8518 65.3093 86.2545 65.608C86.1265 65.6507 85.9985 65.6933 85.8705 65.736C85.7425 65.736 85.6145 65.736 85.4865 65.736C84.9318 65.736 84.4625 65.5653 84.0785 65.224C83.7372 64.8827 83.5665 64.4987 83.5665 64.072C83.5665 63.4747 83.9292 63.048 84.6545 62.792C85.0812 62.664 85.4865 62.472 85.8705 62.216C86.2972 61.96 86.8518 61.7253 87.5345 61.512C88.2172 61.2987 88.8998 61.128 89.5825 61C90.2652 60.872 90.9692 60.808 91.6945 60.808C92.1638 60.808 92.6118 60.8507 93.0385 60.936C93.5078 60.9787 93.9985 61.0427 94.5105 61.128C96.3452 61.5547 97.9878 62.3867 99.4385 63.624C100.932 64.8613 101.679 66.4613 101.679 68.424C101.679 68.8507 101.636 69.2987 101.551 69.768C101.508 70.1947 101.38 70.6427 101.167 71.112C100.612 72.5627 99.7372 73.7787 98.5425 74.76C97.3905 75.6987 96.1532 76.488 94.8305 77.128C94.9158 77.128 95.0438 77.1493 95.2145 77.192C95.3852 77.2347 95.5558 77.2773 95.7265 77.32C97.1772 77.704 98.6492 78.0667 100.143 78.408C101.679 78.7067 103.108 79.5387 104.431 80.904C104.815 81.288 105.284 81.736 105.839 82.248C106.393 82.7173 106.884 83.2933 107.311 83.976C107.737 84.6587 107.951 85.448 107.951 86.344C107.951 86.6427 107.908 86.984 107.823 87.368C107.78 87.752 107.652 88.1573 107.439 88.584C106.543 90.5893 105.391 92.3813 103.983 93.96C102.617 95.5387 100.889 97.0747 98.7985 98.568C97.0065 99.8053 95.0865 100.808 93.0385 101.576C91.0332 102.387 89.1132 103.005 87.2785 103.432C85.4865 103.859 83.9932 104.157 82.7985 104.328ZM75.1185 105.352C74.3505 105.352 73.5825 105.075 72.8145 104.52C72.0465 104.008 71.7265 103.155 71.8545 101.96C71.9825 100.637 72.3878 98.888 73.0705 96.712C73.7958 94.536 74.6705 92.1893 75.6945 89.672C76.7185 87.112 77.8065 84.552 78.9585 81.992C80.1532 79.3893 81.3052 77 82.4145 74.824C83.5665 72.648 84.5478 70.856 85.3585 69.448C85.7425 68.7653 86.3398 68.424 87.1505 68.424C87.6198 68.424 88.0465 68.5947 88.4305 68.936C88.8145 69.2773 88.9638 69.7467 88.8785 70.344V70.28C88.8358 70.7067 88.6652 71.368 88.3665 72.264C88.0678 73.16 87.7478 73.864 87.4065 74.376C86.9372 75.0587 86.3612 75.7627 85.6785 76.488C84.9958 77.1707 84.3985 78.0027 83.8865 78.984C82.3078 81.928 80.8785 84.8293 79.5985 87.688C78.3612 90.504 77.3585 93.0853 76.5905 95.432C75.8225 97.736 75.3745 99.6347 75.2465 101.128C75.2038 101.427 75.3318 101.747 75.6305 102.088C75.9718 102.429 76.2918 102.771 76.5905 103.112C76.9318 103.453 77.1025 103.795 77.1025 104.136C77.1025 104.435 76.8678 104.733 76.3985 105.032C76.0572 105.245 75.6305 105.352 75.1185 105.352ZM116.953 99.592C115.758 99.592 114.585 99.336 113.433 98.824C112.323 98.312 111.406 97.608 110.681 96.712C109.955 95.816 109.593 94.792 109.593 93.64C109.593 91.9333 110.041 90.44 110.937 89.16C111.833 87.88 112.963 86.792 114.329 85.896C115.737 85 117.166 84.3173 118.617 83.848C120.025 83.3787 121.561 83.144 123.225 83.144C124.974 83.144 126.659 83.464 128.281 84.104C129.945 84.7013 131.118 85.7467 131.801 87.24C132.142 86.1307 132.398 85.0427 132.569 83.976C132.739 82.8667 132.825 81.9067 132.825 81.096C132.825 79.7307 132.547 78.6853 131.993 77.96C131.481 77.2347 130.542 76.872 129.177 76.872C128.622 76.872 127.982 77.0853 127.257 77.512C126.531 77.896 125.827 78.408 125.145 79.048C124.889 79.304 124.697 79.4747 124.569 79.56C124.483 79.6453 124.249 79.688 123.865 79.688C123.438 79.688 123.097 79.5387 122.841 79.24C122.627 78.9413 122.521 78.6 122.521 78.216C122.521 77.704 122.713 77.256 123.097 76.872C123.481 76.488 123.907 76.0613 124.377 75.592C124.846 75.1227 125.443 74.7173 126.169 74.376C126.937 73.992 127.897 73.8 129.049 73.8C131.438 73.8 133.187 74.3547 134.297 75.464C135.406 76.5733 135.961 78.3867 135.961 80.904C135.961 82.1413 135.79 83.4213 135.449 84.744C135.15 86.0667 134.787 87.4747 134.361 88.968C134.105 89.9067 133.742 90.9733 133.273 92.168C132.846 93.32 132.291 94.472 131.609 95.624C130.926 96.776 130.094 97.7573 129.113 98.568C128.814 98.824 128.494 98.952 128.153 98.952C127.726 98.952 127.363 98.8027 127.065 98.504C126.766 98.2053 126.617 97.864 126.617 97.48C126.617 97.096 126.809 96.712 127.193 96.328C127.662 95.944 128.153 95.3253 128.665 94.472C129.219 93.6187 129.731 92.552 130.201 91.272C130.073 89.5227 129.241 88.2427 127.705 87.432C126.211 86.6213 124.547 86.216 122.713 86.216C121.646 86.216 120.622 86.344 119.641 86.6C118.574 86.8987 117.507 87.4107 116.441 88.136C115.374 88.8187 114.478 89.6293 113.753 90.568C113.07 91.5067 112.729 92.488 112.729 93.512C112.729 94.3227 113.134 95.048 113.945 95.688C114.798 96.328 115.801 96.648 116.953 96.648C117.934 96.648 118.702 96.6267 119.257 96.584C119.854 96.5413 120.409 96.4133 120.921 96.2C121.475 95.944 122.179 95.496 123.033 94.856C123.417 94.6 123.737 94.472 123.993 94.472C124.334 94.472 124.611 94.5787 124.825 94.792C125.038 95.0053 125.145 95.2827 125.145 95.624C125.145 96.0933 124.91 96.4987 124.441 96.84C122.99 98.0347 121.71 98.8027 120.601 99.144C119.534 99.4427 118.318 99.592 116.953 99.592ZM151.522 76.488C151.309 76.744 151.031 76.7653 150.69 76.552C150.391 76.3387 150.135 76.0187 149.922 75.592C149.709 75.1227 149.645 74.6747 149.73 74.248H149.794C149.965 73.608 150.178 73.0747 150.434 72.648C150.69 72.2213 151.031 71.7947 151.458 71.368C151.714 71.112 152.055 70.984 152.482 70.984C152.866 70.984 153.207 71.112 153.506 71.368C153.847 71.5813 154.018 71.8587 154.018 72.2C154.018 72.3707 153.954 72.5627 153.826 72.776C153.698 72.9467 153.442 73.3947 153.058 74.12C152.717 74.8453 152.205 75.6347 151.522 76.488ZM143.458 100.104C142.775 100.104 142.093 99.848 141.41 99.336C140.77 98.7813 140.514 97.9067 140.642 96.712C140.813 95.048 141.047 93.64 141.346 92.488C141.645 91.336 141.986 90.2907 142.37 89.352C142.754 88.3707 143.159 87.3253 143.586 86.216C144.055 85.1067 144.525 83.7627 144.994 82.184C145.25 81.4587 145.783 81.096 146.594 81.096C147.149 81.096 147.639 81.2667 148.066 81.608C148.493 81.9493 148.621 82.4187 148.45 83.016C147.895 84.808 147.341 86.2587 146.786 87.368C146.231 88.4773 145.719 89.4587 145.25 90.312C144.781 91.1227 144.375 92.0187 144.034 93C143.735 93.9387 143.543 95.1547 143.458 96.648C143.458 96.776 143.735 97.0533 144.29 97.48C144.845 97.864 145.122 98.312 145.122 98.824C145.122 99.208 144.909 99.5493 144.482 99.848C144.269 100.019 143.927 100.104 143.458 100.104ZM161.072 104.52C160.901 104.52 160.752 104.499 160.624 104.456C160.496 104.456 160.347 104.435 160.176 104.392C158.981 104.093 157.808 103.624 156.656 102.984C155.547 102.344 154.629 101.405 153.904 100.168C153.179 98.888 152.816 97.224 152.816 95.176C152.816 94.3653 152.88 93.4907 153.008 92.552C153.221 91.0587 153.605 89.3093 154.16 87.304C154.757 85.256 155.461 83.1227 156.272 80.904H156.208C155.952 80.904 155.717 80.9467 155.504 81.032C155.291 81.1173 155.077 81.16 154.864 81.16C154.181 81.16 153.84 80.7547 153.84 79.944C153.84 79.4747 154.032 79.0267 154.416 78.6C154.8 78.1733 155.163 77.96 155.504 77.96L157.424 77.896C158.491 75.1227 159.557 72.4987 160.624 70.024C161.733 67.5067 162.672 65.5227 163.44 64.072C163.653 63.688 163.952 63.4107 164.336 63.24C164.763 63.0267 165.189 62.92 165.616 62.92C166.043 62.92 166.405 63.0267 166.704 63.24C167.045 63.4107 167.216 63.6667 167.216 64.008C167.216 64.0933 167.173 64.264 167.088 64.52L163.12 73.16C162.736 73.9707 162.373 74.7387 162.032 75.464C161.733 76.1893 161.413 76.9147 161.072 77.64C161.925 77.64 162.8 77.6613 163.696 77.704C164.635 77.7467 165.68 77.832 166.832 77.96C167.045 78.0027 167.259 78.152 167.472 78.408C167.685 78.664 167.792 78.9413 167.792 79.24C167.792 79.4533 167.707 79.6667 167.536 79.88C167.408 80.0507 167.109 80.1573 166.64 80.2C165.616 80.328 164.485 80.4133 163.248 80.456C162.011 80.456 160.901 80.4773 159.92 80.52C158.939 83.1227 158.149 85.4907 157.552 87.624C156.997 89.7573 156.549 91.7627 156.208 93.64C156.165 93.9387 156.123 94.2373 156.08 94.536C156.08 94.8347 156.08 95.112 156.08 95.368C156.08 97.288 156.592 98.7173 157.616 99.656C158.64 100.595 159.792 101.256 161.072 101.64C161.84 101.896 162.373 102.152 162.672 102.408C163.013 102.707 163.184 102.984 163.184 103.24C163.184 103.581 162.971 103.88 162.544 104.136C162.16 104.392 161.669 104.52 161.072 104.52ZM176.941 104.648C176.6 104.648 176.194 104.584 175.725 104.456C173.122 103.603 171.224 102.195 170.029 100.232C168.834 98.2267 168.237 96.1147 168.237 93.896C168.237 93.5547 168.237 93.2347 168.237 92.936C168.28 92.5947 168.322 92.2747 168.365 91.976C168.749 89.544 169.56 87.3893 170.797 85.512C172.077 83.6347 173.506 82.0987 175.085 80.904C176.706 79.6667 178.178 78.8773 179.501 78.536C180.354 78.3227 181.208 78.152 182.061 78.024C182.914 77.8533 183.746 77.768 184.557 77.768C186.605 77.768 188.354 78.216 189.805 79.112C191.256 80.008 191.981 81.48 191.981 83.528C191.981 84.68 191.618 85.7253 190.893 86.664C190.21 87.6027 189.336 88.4133 188.269 89.096C187.245 89.736 186.242 90.248 185.261 90.632C183.768 91.2293 182.061 91.6773 180.141 91.976C178.264 92.2747 176.493 92.424 174.829 92.424C173.762 92.424 172.781 92.36 171.885 92.232V92.296C171.885 92.4667 171.864 92.6373 171.821 92.808C171.778 92.936 171.757 93.0853 171.757 93.256C171.714 93.4267 171.693 93.5973 171.693 93.768C171.693 93.896 171.693 94.024 171.693 94.152C171.693 95.4747 171.949 96.648 172.461 97.672C173.016 98.6533 173.656 99.5067 174.381 100.232C175.106 100.915 175.704 101.469 176.173 101.896C176.941 102.28 177.474 102.643 177.773 102.984C178.114 103.368 178.285 103.667 178.285 103.88C178.285 104.392 177.837 104.648 176.941 104.648ZM176.557 89.544C177.837 89.544 179.181 89.4587 180.589 89.288C181.997 89.0747 183.298 88.6907 184.493 88.136C185.432 87.6667 186.306 87.048 187.117 86.28C187.928 85.4693 188.333 84.5093 188.333 83.4C188.333 82.5467 187.992 81.9067 187.309 81.48C186.626 81.0533 185.666 80.84 184.429 80.84C183.021 80.84 181.485 81.096 179.821 81.608C179.224 81.7787 178.477 82.184 177.581 82.824C176.728 83.464 175.853 84.3387 174.957 85.448C174.061 86.5147 173.314 87.7947 172.717 89.288C173.229 89.3307 173.805 89.3947 174.445 89.48C175.128 89.5227 175.832 89.544 176.557 89.544ZM231.162 101.896C230.095 101.896 229.349 101.491 228.922 100.68C228.538 99.8693 228.346 98.888 228.346 97.736C228.346 96.2427 228.581 94.6853 229.05 93.064C229.519 91.4 229.989 90.0347 230.458 88.968C231.525 86.5787 232.058 85 232.058 84.232C232.058 83.6347 231.781 83.336 231.226 83.336C231.098 83.336 230.949 83.336 230.778 83.336C230.65 83.336 230.501 83.3787 230.33 83.464C229.135 83.8053 227.749 84.488 226.17 85.512C224.634 86.536 223.098 87.688 221.562 88.968C220.026 90.248 218.703 91.5067 217.594 92.744C216.997 93.4267 216.442 94.216 215.93 95.112C215.418 96.008 215.013 96.6267 214.714 96.968C214.245 97.5227 213.69 97.8 213.05 97.8C212.623 97.8 212.239 97.6507 211.898 97.352C211.599 97.0107 211.514 96.4987 211.642 95.816C211.983 93.8107 212.218 92.552 212.346 92.04C212.474 91.4853 212.559 91.208 212.602 91.208V90.568C212.602 89.544 212.538 88.584 212.41 87.688C212.325 86.7493 212.111 86.024 211.77 85.512C211.471 85 211.002 84.8507 210.362 85.064C209.21 85.4053 207.887 86.088 206.394 87.112C204.901 88.136 203.429 89.288 201.978 90.568C200.527 91.848 199.29 93.0427 198.266 94.152C197.199 95.3467 196.517 96.328 196.218 97.096C195.962 97.864 195.834 98.248 195.834 98.248C195.45 98.6747 195.087 98.888 194.746 98.888C193.935 98.888 193.53 98.1627 193.53 96.712C193.53 95.432 193.765 93.9813 194.234 92.36C194.703 90.7387 195.279 89.1387 195.962 87.56C196.687 85.9387 197.349 84.5307 197.946 83.336C198.33 82.6533 198.863 82.312 199.546 82.312C200.015 82.312 200.399 82.4827 200.698 82.824C201.039 83.1653 201.167 83.6347 201.082 84.232C201.082 84.488 200.826 85 200.314 85.768C199.802 86.4933 199.269 87.3893 198.714 88.456C198.202 89.48 197.882 90.5893 197.754 91.784C198.223 91.0587 198.629 90.5467 198.97 90.248C199.354 89.9067 199.823 89.4587 200.378 88.904C201.573 87.7093 202.597 86.7707 203.45 86.088C204.346 85.4053 205.285 84.808 206.266 84.296C207.247 83.784 208.463 83.208 209.914 82.568C210.298 82.3547 210.703 82.184 211.13 82.056C211.557 81.928 211.983 81.864 212.41 81.864C213.093 81.864 213.711 82.12 214.266 82.632C214.821 83.1013 215.269 83.9547 215.61 85.192C215.994 86.4293 216.165 88.2213 216.122 90.568C216.719 90.0987 217.231 89.6293 217.658 89.16C218.127 88.648 218.639 88.1147 219.194 87.56C220.431 86.3227 221.519 85.32 222.458 84.552C223.439 83.7413 224.463 83.0373 225.53 82.44C226.639 81.8 227.962 81.1387 229.498 80.456C229.967 80.2427 230.522 80.0507 231.162 79.88C231.802 79.6667 232.421 79.56 233.018 79.56C233.743 79.56 234.383 79.7733 234.938 80.2C235.493 80.6267 235.77 81.416 235.77 82.568C235.77 83.336 235.621 84.296 235.322 85.448C235.066 86.5573 234.575 87.9227 233.85 89.544C233.21 91.0373 232.655 92.6373 232.186 94.344C231.759 96.0507 231.461 97.4587 231.29 98.568C231.759 99.2507 231.994 99.9973 231.994 100.808C231.994 101.107 231.93 101.363 231.802 101.576C231.674 101.789 231.461 101.896 231.162 101.896ZM251.272 76.488C251.059 76.744 250.781 76.7653 250.44 76.552C250.141 76.3387 249.885 76.0187 249.672 75.592C249.459 75.1227 249.395 74.6747 249.48 74.248H249.544C249.715 73.608 249.928 73.0747 250.184 72.648C250.44 72.2213 250.781 71.7947 251.208 71.368C251.464 71.112 251.805 70.984 252.232 70.984C252.616 70.984 252.957 71.112 253.256 71.368C253.597 71.5813 253.768 71.8587 253.768 72.2C253.768 72.3707 253.704 72.5627 253.576 72.776C253.448 72.9467 253.192 73.3947 252.808 74.12C252.467 74.8453 251.955 75.6347 251.272 76.488ZM243.208 100.104C242.525 100.104 241.843 99.848 241.16 99.336C240.52 98.7813 240.264 97.9067 240.392 96.712C240.563 95.048 240.797 93.64 241.096 92.488C241.395 91.336 241.736 90.2907 242.12 89.352C242.504 88.3707 242.909 87.3253 243.336 86.216C243.805 85.1067 244.275 83.7627 244.744 82.184C245 81.4587 245.533 81.096 246.344 81.096C246.899 81.096 247.389 81.2667 247.816 81.608C248.243 81.9493 248.371 82.4187 248.2 83.016C247.645 84.808 247.091 86.2587 246.536 87.368C245.981 88.4773 245.469 89.4587 245 90.312C244.531 91.1227 244.125 92.0187 243.784 93C243.485 93.9387 243.293 95.1547 243.208 96.648C243.208 96.776 243.485 97.0533 244.04 97.48C244.595 97.864 244.872 98.312 244.872 98.824C244.872 99.208 244.659 99.5493 244.232 99.848C244.019 100.019 243.677 100.104 243.208 100.104ZM254.422 99.976C254.038 99.976 253.675 99.8267 253.334 99.528C253.035 99.1867 252.886 98.632 252.886 97.864C252.886 97.6933 252.886 97.5227 252.886 97.352C252.929 97.1387 252.971 96.9253 253.014 96.712C253.398 94.8347 253.889 92.8507 254.486 90.76C255.126 88.6693 255.766 86.7067 256.406 84.872C257.046 82.9947 257.515 81.5227 257.814 80.456C258.027 79.7733 258.326 79.2827 258.71 78.984C259.137 78.6853 259.563 78.536 259.99 78.536C260.459 78.536 260.843 78.6853 261.142 78.984C261.483 79.24 261.654 79.6027 261.654 80.072C261.654 80.456 261.526 80.8827 261.27 81.352C261.014 81.8213 260.694 82.568 260.31 83.592C259.969 84.616 259.627 85.64 259.286 86.664C258.945 87.688 258.646 88.456 258.39 88.968C259.883 87.5173 261.227 86.3227 262.422 85.384C263.617 84.4453 265.195 83.528 267.158 82.632C268.011 82.2053 269.121 81.992 270.486 81.992C271.467 81.992 272.449 82.184 273.43 82.568C274.411 82.952 275.222 83.6347 275.862 84.616C276.502 85.5973 276.822 86.984 276.822 88.776C276.822 89.4587 276.438 89.8 275.67 89.8C275.371 89.8 275.051 89.672 274.71 89.416C274.411 89.16 274.155 88.7333 273.942 88.136C273.643 87.1547 273.174 86.3867 272.534 85.832C271.937 85.2347 271.147 84.936 270.166 84.936C269.569 84.936 268.886 85.064 268.118 85.32C267.179 85.6187 266.006 86.1947 264.598 87.048C263.19 87.8587 261.739 88.8827 260.246 90.12C258.795 91.3573 257.451 92.7653 256.214 94.344C256.214 94.6427 256.15 94.984 256.022 95.368C255.937 95.752 255.894 96.1787 255.894 96.648C255.894 96.7333 255.937 96.9467 256.022 97.288C256.107 97.6293 256.15 97.9707 256.15 98.312C256.15 98.7813 255.958 99.1867 255.574 99.528C255.233 99.8267 254.849 99.976 254.422 99.976ZM88.1028 202.824C87.6761 202.824 87.3134 202.675 87.0148 202.376C86.7161 202.12 86.6094 201.715 86.6948 201.16C86.9508 199.752 87.1214 198.771 87.2068 198.216C87.3348 197.704 87.4201 197.32 87.4628 197.064C87.5481 196.808 87.6334 196.445 87.7188 195.976C87.8468 195.507 87.9961 194.632 88.1668 193.352C88.5081 191.304 88.7428 189.405 88.8708 187.656C88.9988 185.864 89.0841 184.221 89.1268 182.728C87.5054 182.899 85.9694 183.069 84.5188 183.24C83.1108 183.411 81.5321 183.816 79.7828 184.456H79.7188C79.0361 184.712 78.3748 185.075 77.7348 185.544C77.0948 185.971 76.3268 186.355 75.4308 186.696C75.1748 186.781 74.9614 186.824 74.7908 186.824C74.2788 186.824 73.8948 186.611 73.6388 186.184C73.4254 185.715 73.3614 185.267 73.4468 184.84C73.1481 185.309 72.8494 185.715 72.5508 186.056C71.8254 187.123 71.1854 188.061 70.6308 188.872C70.1188 189.64 69.5001 190.557 68.7748 191.624C68.0921 192.605 67.4948 193.693 66.9828 194.888C66.4708 196.04 65.9161 197.107 65.3188 198.088C65.0201 198.515 64.6361 198.728 64.1668 198.728C63.6974 198.728 63.2707 198.536 62.8867 198.152C62.5027 197.768 62.3107 197.32 62.3107 196.808C62.3107 196.509 62.3961 196.211 62.5667 195.912C63.2067 194.931 63.7828 194.099 64.2948 193.416C64.8494 192.691 65.4468 191.859 66.0868 190.92C66.8548 189.811 67.4948 188.872 68.0068 188.104C68.5614 187.336 69.1801 186.44 69.8628 185.416C70.6734 184.221 71.3988 183.176 72.0388 182.28C72.7214 181.384 73.3828 180.488 74.0228 179.592C74.7054 178.653 75.4308 177.608 76.1988 176.456C76.8814 175.389 77.4148 174.387 77.7988 173.448C78.2254 172.467 78.6734 171.507 79.1428 170.568C79.6548 169.629 80.3801 168.691 81.3188 167.752L81.3828 167.688C82.3641 166.707 83.3454 165.555 84.3268 164.232C85.3081 162.867 86.0121 161.715 86.4388 160.776C87.2494 159.837 88.1454 159.368 89.1268 159.368C90.2788 159.368 91.2388 160.008 92.0068 161.288C92.1774 161.715 92.2841 162.12 92.3268 162.504C92.3694 162.888 92.3908 163.272 92.3908 163.656C92.3908 164.253 92.3481 164.829 92.2628 165.384C92.2201 165.939 92.1988 166.493 92.1988 167.048C92.2414 168.456 92.2628 169.715 92.2628 170.824C92.3054 171.891 92.3268 173.021 92.3268 174.216C92.3268 174.771 92.3268 175.347 92.3268 175.944C92.3268 176.541 92.3054 177.181 92.2628 177.864C92.2628 178.035 92.2414 178.269 92.1988 178.568C92.1988 178.867 92.1988 179.08 92.1988 179.208H92.8388C93.3508 179.208 93.7348 179.336 93.9908 179.592C94.2468 179.848 94.3748 180.147 94.3748 180.488C94.3748 180.829 94.2468 181.171 93.9908 181.512C93.7348 181.811 93.3294 182.003 92.7748 182.088C92.6468 182.131 92.5188 182.173 92.3908 182.216C92.2628 182.216 92.1134 182.259 91.9428 182.344C91.8574 183.24 91.7721 184.157 91.6868 185.096C91.6014 185.992 91.4948 186.995 91.3668 188.104C91.1961 189.768 91.0468 191.261 90.9188 192.584C90.8334 193.864 90.7054 195.187 90.5348 196.552C90.4068 197.875 90.1721 199.496 89.8308 201.416C89.7454 201.885 89.5321 202.227 89.1908 202.44C88.8494 202.696 88.4868 202.824 88.1028 202.824ZM78.7588 177.864C77.9054 179.229 77.1374 180.317 76.4548 181.128C75.7721 181.939 75.0681 182.835 74.3428 183.816L74.5348 183.624C75.3454 183.325 76.0494 183.005 76.6468 182.664C77.2868 182.28 78.0548 182.003 78.9508 181.832C78.9508 181.832 79.5054 181.704 80.6147 181.448C81.7241 181.192 83.0681 180.893 84.6468 180.552C86.2681 180.168 87.8041 179.848 89.2548 179.592L89.3188 177.416C89.3188 177.032 89.3188 176.648 89.3188 176.264C89.3614 175.88 89.3828 175.539 89.3828 175.24C89.3828 173.875 89.3401 172.637 89.2548 171.528C89.2121 170.419 89.1694 169.011 89.1268 167.304C89.2121 166.707 89.2761 166.152 89.3188 165.64C89.3614 165.128 89.3828 164.659 89.3828 164.232C89.3828 163.549 89.3188 163.08 89.1908 162.824C89.1054 162.824 88.9561 162.845 88.7428 162.888C88.5721 162.888 88.4014 162.973 88.2308 163.144C87.4628 163.656 86.7801 164.445 86.1828 165.512C85.6281 166.579 84.8814 167.816 83.9428 169.224V169.16C82.8761 170.739 82.0228 172.168 81.3828 173.448C80.7428 174.685 79.8681 176.157 78.7588 177.864ZM97.9618 199.496C97.6631 199.496 97.3218 199.475 96.9378 199.432C96.5964 199.389 96.2338 199.325 95.8498 199.24C95.2951 199.112 95.0177 198.707 95.0177 198.024C95.0177 197.64 95.1671 197.299 95.4657 197C95.7644 196.659 96.1911 196.531 96.7458 196.616C97.2151 196.659 97.9618 196.552 98.9858 196.296C100.052 196.04 101.226 195.699 102.506 195.272C104.383 194.589 105.919 193.864 107.114 193.096C108.308 192.328 109.29 191.432 110.058 190.408C110.868 189.384 111.274 188.403 111.274 187.464C111.274 187.037 111.188 186.632 111.018 186.248C110.847 185.821 110.527 185.416 110.058 185.032C109.332 184.392 108.458 183.795 107.434 183.24C106.41 182.685 105.407 182.109 104.426 181.512C103.444 180.872 102.612 180.168 101.93 179.4C101.29 178.589 100.97 177.608 100.97 176.456C100.97 175.432 101.332 174.557 102.058 173.832C102.783 173.064 103.615 172.445 104.554 171.976C105.535 171.464 106.367 171.101 107.05 170.888C107.732 170.675 108.415 170.525 109.098 170.44C109.78 170.312 110.463 170.248 111.146 170.248C111.956 170.248 112.724 170.355 113.45 170.568C114.218 170.739 114.943 171.059 115.626 171.528C116.01 171.784 116.287 172.083 116.458 172.424C116.628 172.765 116.714 173.107 116.714 173.448C116.714 173.917 116.564 174.344 116.266 174.728C116.01 175.069 115.647 175.24 115.178 175.24C114.836 175.24 114.388 175.069 113.834 174.728H113.898C112.959 174.045 111.871 173.704 110.634 173.704C109.951 173.704 109.332 173.789 108.778 173.96C107.882 174.173 107.007 174.451 106.154 174.792C105.3 175.133 104.767 175.667 104.554 176.392C104.426 176.947 104.746 177.565 105.514 178.248C106.324 178.888 107.327 179.549 108.522 180.232C109.716 180.872 110.826 181.512 111.85 182.152C112.831 182.707 113.62 183.453 114.218 184.392C114.815 185.331 115.114 186.333 115.114 187.4C115.114 188.723 114.623 190.003 113.642 191.24C112.063 193.16 110.42 194.653 108.714 195.72C107.05 196.787 105.172 197.661 103.082 198.344C101.93 198.728 100.97 199.005 100.202 199.176C99.4338 199.389 98.6871 199.496 97.9618 199.496ZM127.109 195.592C125.914 195.592 124.741 195.336 123.589 194.824C122.479 194.312 121.562 193.608 120.837 192.712C120.111 191.816 119.749 190.792 119.749 189.64C119.749 187.933 120.197 186.44 121.093 185.16C121.989 183.88 123.119 182.792 124.485 181.896C125.893 181 127.322 180.317 128.773 179.848C130.181 179.379 131.717 179.144 133.381 179.144C135.13 179.144 136.815 179.464 138.437 180.104C140.101 180.701 141.274 181.747 141.957 183.24C142.298 182.131 142.554 181.043 142.725 179.976C142.895 178.867 142.981 177.907 142.981 177.096C142.981 175.731 142.703 174.685 142.149 173.96C141.637 173.235 140.698 172.872 139.333 172.872C138.778 172.872 138.138 173.085 137.413 173.512C136.687 173.896 135.983 174.408 135.301 175.048C135.045 175.304 134.853 175.475 134.725 175.56C134.639 175.645 134.405 175.688 134.021 175.688C133.594 175.688 133.253 175.539 132.997 175.24C132.783 174.941 132.677 174.6 132.677 174.216C132.677 173.704 132.869 173.256 133.253 172.872C133.637 172.488 134.063 172.061 134.533 171.592C135.002 171.123 135.599 170.717 136.325 170.376C137.093 169.992 138.053 169.8 139.205 169.8C141.594 169.8 143.343 170.355 144.453 171.464C145.562 172.573 146.117 174.387 146.117 176.904C146.117 178.141 145.946 179.421 145.605 180.744C145.306 182.067 144.943 183.475 144.517 184.968C144.261 185.907 143.898 186.973 143.429 188.168C143.002 189.32 142.447 190.472 141.765 191.624C141.082 192.776 140.25 193.757 139.269 194.568C138.97 194.824 138.65 194.952 138.309 194.952C137.882 194.952 137.519 194.803 137.221 194.504C136.922 194.205 136.773 193.864 136.773 193.48C136.773 193.096 136.965 192.712 137.349 192.328C137.818 191.944 138.309 191.325 138.821 190.472C139.375 189.619 139.887 188.552 140.357 187.272C140.229 185.523 139.397 184.243 137.861 183.432C136.367 182.621 134.703 182.216 132.869 182.216C131.802 182.216 130.778 182.344 129.797 182.6C128.73 182.899 127.663 183.411 126.597 184.136C125.53 184.819 124.634 185.629 123.909 186.568C123.226 187.507 122.885 188.488 122.885 189.512C122.885 190.323 123.29 191.048 124.101 191.688C124.954 192.328 125.957 192.648 127.109 192.648C128.09 192.648 128.858 192.627 129.413 192.584C130.01 192.541 130.565 192.413 131.077 192.2C131.631 191.944 132.335 191.496 133.189 190.856C133.573 190.6 133.893 190.472 134.149 190.472C134.49 190.472 134.767 190.579 134.981 190.792C135.194 191.005 135.301 191.283 135.301 191.624C135.301 192.093 135.066 192.499 134.597 192.84C133.146 194.035 131.866 194.803 130.757 195.144C129.69 195.443 128.474 195.592 127.109 195.592ZM171.854 197.512C171.214 197.512 170.617 197.149 170.062 196.424C169.508 195.656 169.23 194.696 169.23 193.544C169.23 192.819 169.294 191.901 169.422 190.792C169.55 189.683 169.742 188.573 169.998 187.464C170.254 186.312 170.553 185.331 170.894 184.52C171.577 182.984 171.918 181.768 171.918 180.872C171.918 179.763 171.406 179.208 170.382 179.208C170.254 179.208 170.105 179.208 169.934 179.208C169.764 179.208 169.593 179.251 169.422 179.336C168.569 179.592 167.417 180.168 165.966 181.064C164.516 181.917 162.98 182.92 161.358 184.072C159.78 185.224 158.286 186.376 156.878 187.528C155.47 188.68 154.382 189.683 153.614 190.536C152.548 191.731 151.844 192.648 151.502 193.288C151.161 193.928 150.99 194.248 150.99 194.248C150.649 194.717 150.265 194.952 149.838 194.952C149.454 194.952 149.134 194.76 148.878 194.376C148.622 193.949 148.558 193.395 148.686 192.712C149.284 189.213 149.924 186.227 150.606 183.752C151.332 181.277 152.164 179.144 153.102 177.352C153.486 176.669 154.02 176.328 154.702 176.328C155.086 176.328 155.428 176.477 155.726 176.776C156.025 177.032 156.174 177.437 156.174 177.992C156.174 178.291 156.046 178.867 155.79 179.72C155.577 180.573 155.3 181.277 154.958 181.832C154.532 182.515 154.169 183.304 153.87 184.2C153.614 185.053 153.294 186.248 152.91 187.784C153.38 187.059 153.785 186.547 154.126 186.248C154.468 185.907 154.916 185.459 155.47 184.904C157.22 183.155 159.289 181.576 161.678 180.168C164.11 178.717 166.436 177.501 168.654 176.52C169.124 176.307 169.721 176.093 170.446 175.88C171.172 175.667 171.897 175.56 172.622 175.56C173.476 175.56 174.244 175.795 174.926 176.264C175.609 176.733 175.95 177.629 175.95 178.952C175.95 179.635 175.822 180.467 175.566 181.448C175.353 182.429 174.969 183.581 174.414 184.904C173.732 186.483 173.284 188.125 173.07 189.832C172.9 191.539 172.814 192.989 172.814 194.184C172.814 194.525 172.814 194.867 172.814 195.208C172.857 195.507 172.878 195.784 172.878 196.04C172.878 196.467 172.814 196.808 172.686 197.064C172.558 197.363 172.281 197.512 171.854 197.512ZM183.436 197.704C182.284 197.704 181.196 197.555 180.172 197.256C179.148 197 178.23 196.531 177.42 195.848C177.121 195.549 176.972 195.144 176.972 194.632C176.972 194.035 177.164 193.459 177.548 192.904C177.974 192.349 178.422 192.072 178.892 192.072C179.148 192.072 179.404 192.2 179.66 192.456C179.916 192.755 180.214 193.117 180.556 193.544C180.94 193.971 181.473 194.291 182.156 194.504C182.369 194.547 182.604 194.589 182.86 194.632C183.116 194.632 183.393 194.632 183.692 194.632C184.332 194.632 184.993 194.589 185.676 194.504C186.401 194.419 186.977 194.333 187.404 194.248C189.452 193.736 191.478 192.947 193.484 191.88C195.489 190.813 197.302 189.576 198.924 188.168C200.545 186.76 201.846 185.245 202.828 183.624C203.809 182.003 204.3 180.36 204.3 178.696C204.3 177.459 203.724 176.84 202.572 176.84C201.889 176.84 200.993 177.011 199.884 177.352C198.774 177.693 197.622 178.141 196.428 178.696C195.233 179.251 194.102 179.869 193.036 180.552C191.286 181.704 189.793 182.92 188.556 184.2C187.318 185.48 186.038 186.803 184.716 188.168C184.46 188.424 184.118 188.552 183.692 188.552C183.265 188.552 182.86 188.445 182.476 188.232C182.092 187.976 181.9 187.635 181.9 187.208C181.9 186.867 182.049 186.525 182.348 186.184C183.03 185.331 183.734 184.093 184.46 182.472C185.185 180.851 185.889 179.059 186.572 177.096C187.297 175.133 187.98 173.213 188.62 171.336C189.26 169.416 189.857 167.731 190.412 166.28C191.094 164.445 191.649 162.696 192.076 161.032C192.502 159.368 192.929 157.917 193.356 156.68C193.569 156.04 194.017 155.72 194.7 155.72C195.169 155.72 195.617 155.891 196.044 156.232C196.513 156.531 196.748 156.936 196.748 157.448C196.748 157.491 196.726 157.576 196.684 157.704C196.684 157.789 196.684 157.875 196.684 157.96V158.024C196.044 159.859 195.297 161.843 194.444 163.976C193.59 166.067 192.588 168.499 191.436 171.272C190.326 174.045 189.025 177.309 187.532 181.064C188.428 180.253 189.43 179.443 190.54 178.632C191.649 177.779 192.929 177.011 194.38 176.328C195.574 175.731 196.961 175.155 198.54 174.6C200.118 174.003 201.484 173.704 202.636 173.704C204.385 173.704 205.622 174.301 206.348 175.496C207.073 176.648 207.436 177.907 207.436 179.272C207.436 181.235 206.817 183.197 205.58 185.16C204.385 187.123 202.785 188.936 200.78 190.6C198.774 192.264 196.577 193.693 194.188 194.888C191.798 196.04 189.43 196.851 187.084 197.32C185.889 197.576 184.673 197.704 183.436 197.704ZM215.921 195.592C214.727 195.592 213.553 195.336 212.401 194.824C211.292 194.312 210.375 193.608 209.649 192.712C208.924 191.816 208.561 190.792 208.561 189.64C208.561 187.933 209.009 186.44 209.905 185.16C210.801 183.88 211.932 182.792 213.297 181.896C214.705 181 216.135 180.317 217.585 179.848C218.993 179.379 220.529 179.144 222.193 179.144C223.943 179.144 225.628 179.464 227.249 180.104C228.913 180.701 230.087 181.747 230.769 183.24C231.111 182.131 231.367 181.043 231.537 179.976C231.708 178.867 231.793 177.907 231.793 177.096C231.793 175.731 231.516 174.685 230.961 173.96C230.449 173.235 229.511 172.872 228.145 172.872C227.591 172.872 226.951 173.085 226.225 173.512C225.5 173.896 224.796 174.408 224.113 175.048C223.857 175.304 223.665 175.475 223.537 175.56C223.452 175.645 223.217 175.688 222.833 175.688C222.407 175.688 222.065 175.539 221.809 175.24C221.596 174.941 221.489 174.6 221.489 174.216C221.489 173.704 221.681 173.256 222.065 172.872C222.449 172.488 222.876 172.061 223.345 171.592C223.815 171.123 224.412 170.717 225.137 170.376C225.905 169.992 226.865 169.8 228.017 169.8C230.407 169.8 232.156 170.355 233.265 171.464C234.375 172.573 234.929 174.387 234.929 176.904C234.929 178.141 234.759 179.421 234.417 180.744C234.119 182.067 233.756 183.475 233.329 184.968C233.073 185.907 232.711 186.973 232.241 188.168C231.815 189.32 231.26 190.472 230.577 191.624C229.895 192.776 229.063 193.757 228.081 194.568C227.783 194.824 227.463 194.952 227.121 194.952C226.695 194.952 226.332 194.803 226.033 194.504C225.735 194.205 225.585 193.864 225.585 193.48C225.585 193.096 225.777 192.712 226.161 192.328C226.631 191.944 227.121 191.325 227.633 190.472C228.188 189.619 228.7 188.552 229.169 187.272C229.041 185.523 228.209 184.243 226.673 183.432C225.18 182.621 223.516 182.216 221.681 182.216C220.615 182.216 219.591 182.344 218.609 182.6C217.543 182.899 216.476 183.411 215.409 184.136C214.343 184.819 213.447 185.629 212.721 186.568C212.039 187.507 211.697 188.488 211.697 189.512C211.697 190.323 212.103 191.048 212.913 191.688C213.767 192.328 214.769 192.648 215.921 192.648C216.903 192.648 217.671 192.627 218.225 192.584C218.823 192.541 219.377 192.413 219.889 192.2C220.444 191.944 221.148 191.496 222.001 190.856C222.385 190.6 222.705 190.472 222.961 190.472C223.303 190.472 223.58 190.579 223.793 190.792C224.007 191.005 224.113 191.283 224.113 191.624C224.113 192.093 223.879 192.499 223.409 192.84C221.959 194.035 220.679 194.803 219.569 195.144C218.503 195.443 217.287 195.592 215.921 195.592ZM247.035 200.648C246.693 200.648 246.288 200.584 245.819 200.456C243.216 199.603 241.317 198.195 240.123 196.232C238.928 194.227 238.331 192.115 238.331 189.896C238.331 189.555 238.331 189.235 238.331 188.936C238.373 188.595 238.416 188.275 238.459 187.976C238.843 185.544 239.653 183.389 240.891 181.512C242.171 179.635 243.6 178.099 245.179 176.904C246.8 175.667 248.272 174.877 249.595 174.536C250.448 174.323 251.301 174.152 252.155 174.024C253.008 173.853 253.84 173.768 254.651 173.768C256.699 173.768 258.448 174.216 259.899 175.112C261.349 176.008 262.075 177.48 262.075 179.528C262.075 180.68 261.712 181.725 260.987 182.664C260.304 183.603 259.429 184.413 258.363 185.096C257.339 185.736 256.336 186.248 255.355 186.632C253.861 187.229 252.155 187.677 250.235 187.976C248.357 188.275 246.587 188.424 244.923 188.424C243.856 188.424 242.875 188.36 241.979 188.232V188.296C241.979 188.467 241.957 188.637 241.915 188.808C241.872 188.936 241.851 189.085 241.851 189.256C241.808 189.427 241.787 189.597 241.787 189.768C241.787 189.896 241.787 190.024 241.787 190.152C241.787 191.475 242.043 192.648 242.555 193.672C243.109 194.653 243.749 195.507 244.475 196.232C245.2 196.915 245.797 197.469 246.267 197.896C247.035 198.28 247.568 198.643 247.867 198.984C248.208 199.368 248.379 199.667 248.379 199.88C248.379 200.392 247.931 200.648 247.035 200.648ZM246.651 185.544C247.931 185.544 249.275 185.459 250.683 185.288C252.091 185.075 253.392 184.691 254.587 184.136C255.525 183.667 256.4 183.048 257.211 182.28C258.021 181.469 258.427 180.509 258.427 179.4C258.427 178.547 258.085 177.907 257.403 177.48C256.72 177.053 255.76 176.84 254.523 176.84C253.115 176.84 251.579 177.096 249.915 177.608C249.317 177.779 248.571 178.184 247.675 178.824C246.821 179.464 245.947 180.339 245.051 181.448C244.155 182.515 243.408 183.795 242.811 185.288C243.323 185.331 243.899 185.395 244.539 185.48C245.221 185.523 245.925 185.544 246.651 185.544ZM272.377 195.848C272.078 195.848 271.758 195.763 271.417 195.592C271.118 195.421 270.883 195.165 270.713 194.824C270.03 193.16 269.475 191.667 269.049 190.344C268.665 189.021 268.302 187.485 267.961 185.736C267.619 184.072 267.321 182.429 267.065 180.808C266.851 179.187 266.745 177.715 266.745 176.392C266.745 175.496 266.809 174.664 266.937 173.896C267.022 173.384 267.257 173 267.641 172.744C268.067 172.445 268.494 172.296 268.921 172.296C269.347 172.296 269.71 172.424 270.009 172.68C270.307 172.936 270.414 173.32 270.329 173.832C270.286 174.045 270.201 174.515 270.073 175.24C269.987 175.923 269.966 176.413 270.009 176.712C269.966 176.968 269.945 177.245 269.945 177.544C269.945 177.8 269.945 178.056 269.945 178.312C269.945 179.336 270.009 180.424 270.137 181.576C270.307 182.728 270.521 183.965 270.777 185.288C271.033 186.483 271.353 187.549 271.737 188.488C272.121 189.427 272.505 190.387 272.889 191.368C273.657 190.216 274.574 188.872 275.641 187.336C276.75 185.757 277.923 184.2 279.161 182.664C280.398 181.085 281.593 179.699 282.745 178.504C283.939 177.267 285.006 176.435 285.945 176.008C286.542 175.667 287.161 175.496 287.801 175.496C288.313 175.496 288.654 175.645 288.825 175.944C288.995 176.243 288.91 176.627 288.569 177.096C288.227 177.523 287.886 177.864 287.545 178.12C284.857 180.168 282.361 182.728 280.057 185.8C277.795 188.872 275.683 192.008 273.721 195.208C273.465 195.635 273.017 195.848 272.377 195.848Z" fill="white"/>
</svg>
